<svg version="1.1" id="Layer_1" xmlns="http://www.w3.org/2000/svg" xmlns:xlink="http://www.w3.org/1999/xlink" x="0px" y="0px"
	 width="100%" viewBox="0 0 496 496" enable-background="new 0 0 496 496" xml:space="preserve">
<path fill="#000000" opacity="1.000000" stroke="none" 
	d="
M199.257629,245.575760 
	C197.487335,258.446198 186.228851,269.643646 172.378860,271.076141 
	C158.525726,272.508942 144.751541,262.995544 140.903152,248.714996 
	C137.133423,234.726334 144.511292,220.239563 157.302155,214.416672 
	C176.489090,205.682068 202.322418,219.489960 199.257629,245.575760 
z"/>
<path fill="#000000" opacity="1.000000" stroke="none" 
	d="
M220.696747,281.863953 
	C220.968063,267.747467 229.813156,256.021637 242.185623,252.918457 
	C256.188324,249.406418 270.585907,254.940109 276.913544,266.988983 
	C282.545380,277.712952 281.975708,288.638062 274.817749,298.521362 
	C267.385895,308.782867 256.882355,312.645966 244.541473,310.118256 
	C232.763947,307.705902 225.318497,300.117676 221.860794,288.664062 
	C221.242905,286.617310 221.077240,284.434082 220.696747,281.863953 
z"/>
<path fill="#000000" opacity="1.000000" stroke="none" 
	d="
M276.317383,187.924805 
	C263.487152,180.808182 257.178070,167.970062 260.018372,155.267944 
	C263.008301,141.896606 273.944672,132.388336 288.156189,131.853500 
	C299.519775,131.425827 312.632935,138.032669 317.220459,150.697021 
	C321.905670,163.631042 317.850342,177.342255 307.202087,184.990814 
	C297.611725,191.879486 287.463074,193.214172 276.317383,187.924805 
z"/>
<path fill="#000000" opacity="1.000000" stroke="none" 
	d="
M356.922668,256.716064 
	C347.926971,269.887634 332.398254,274.507721 319.036041,268.251678 
	C305.416534,261.875153 298.587036,245.999115 303.148224,231.318512 
	C309.083984,212.213806 335.624298,205.359222 350.888428,218.988647 
	C362.294128,229.172836 364.421173,241.956299 356.922668,256.716064 
z"/>
<path fill="#000000" opacity="1.000000" stroke="none" 
	d="
M225.766205,142.283188 
	C236.128799,155.316223 234.210510,174.051712 221.745392,184.098663 
	C208.581253,194.709030 191.051483,192.912308 179.990494,179.818985 
	C169.946869,167.929916 171.515625,149.353561 183.436722,139.010803 
	C195.805389,128.279724 214.448471,129.606689 225.766205,142.283188 
z"/>
<path fill="#000000" opacity="1.000000" stroke="none" 
	d="
M225.991165,369.589966 
	C225.443802,369.817780 225.290649,369.898743 225.128799,369.923981 
	C212.269791,371.932007 211.794159,371.537231 211.761185,358.845398 
	C211.747787,353.682617 211.951218,348.507141 211.651566,343.360992 
	C211.403259,339.096436 213.245331,337.589325 217.208954,337.923065 
	C217.870758,337.978790 218.541565,337.917511 219.206528,337.947418 
	C229.700836,338.419525 232.829727,343.885040 227.892303,353.111847 
	C233.177948,361.049591 232.777649,365.369354 225.991165,369.589966 
M226.070236,360.789429 
	C225.698898,358.869202 224.788971,357.209686 222.866470,356.665833 
	C220.872360,356.101654 218.060104,355.107971 217.532562,358.149170 
	C217.103058,360.625305 215.605240,364.341095 219.141937,365.628510 
	C222.420517,366.821869 225.450684,365.623169 226.070236,360.789429 
M217.161942,344.150970 
	C217.096344,345.297363 216.936462,346.448029 216.987793,347.589172 
	C217.060287,349.200684 216.912125,351.072998 219.087189,351.516205 
	C221.254593,351.957855 223.052597,351.072357 224.168533,349.271637 
	C225.179352,347.640533 225.274536,345.623840 223.960495,344.187775 
	C222.158234,342.218201 219.894440,341.437744 217.161942,344.150970 
z"/>
<path fill="#000000" opacity="1.000000" stroke="none" 
	d="
M150.883453,366.634705 
	C150.563004,368.827148 150.134613,370.445374 147.807999,370.130280 
	C145.773987,369.854828 145.702820,368.258453 145.697113,366.748627 
	C145.665573,358.427429 145.679321,350.106079 145.672546,341.784760 
	C145.671082,339.987823 145.922867,338.322052 148.242294,338.353790 
	C150.461441,338.384186 150.884064,340.044739 150.983124,341.805939 
	C151.067154,343.299377 151.156235,344.813202 151.009842,346.294952 
	C150.608475,350.357605 152.231674,351.865387 156.411606,351.831177 
	C160.642807,351.796539 162.213120,350.360626 161.475769,346.181091 
	C161.162720,344.406616 161.210312,342.542267 161.306763,340.730072 
	C161.385574,339.248810 162.252823,338.242523 163.875870,338.248962 
	C165.542053,338.255554 166.285660,339.304382 166.289261,340.816010 
	C166.310715,349.801086 166.298157,358.786285 166.257584,367.771301 
	C166.250504,369.342072 165.387314,370.208496 163.750366,370.201843 
	C162.064087,370.194977 161.341431,369.119080 161.245865,367.673859 
	C161.092407,365.353485 160.991913,363.013275 161.114731,360.694489 
	C161.325928,356.706879 159.035507,356.097198 155.744019,356.076782 
	C152.420731,356.056213 150.700150,357.166504 150.933594,360.695801 
	C151.054123,362.517639 150.932587,364.355469 150.883453,366.634705 
z"/>
<path fill="#000000" opacity="1.000000" stroke="none" 
	d="
M270.223877,352.042847 
	C273.951447,351.854034 275.644775,353.210236 275.329041,356.723267 
	C275.180878,358.371613 275.309631,360.044556 275.307251,361.706329 
	C275.295532,369.902557 270.189667,373.204132 262.334290,370.096405 
	C255.477646,367.383850 252.065765,356.925995 254.783295,346.951843 
	C256.641113,340.133057 262.506958,336.678833 270.286530,337.822327 
	C273.546478,338.301514 273.844421,338.618713 274.163696,341.985352 
	C272.831390,343.234985 271.314117,342.343079 269.913177,342.232086 
	C263.525482,341.726166 260.853149,343.473328 259.652496,349.642029 
	C258.707611,354.496643 259.226227,359.277466 262.048981,363.515228 
	C263.556091,365.777893 265.953217,366.684540 268.564972,366.333008 
	C270.751709,366.038727 270.798676,364.046478 270.607544,362.395203 
	C270.338135,360.067749 272.060059,356.673645 267.669617,356.268555 
	C266.292358,356.141510 265.428284,355.300354 265.734009,353.928589 
	C266.234955,351.680817 268.245789,352.252625 270.223877,352.042847 
z"/>
<path fill="#000000" opacity="1.000000" stroke="none" 
	d="
M367.986145,343.063019 
	C366.129150,350.425232 366.410034,350.864197 373.286896,351.751648 
	C374.636444,351.925781 376.132507,351.922607 376.278351,353.691101 
	C376.453400,355.813416 374.825897,355.892944 373.274323,356.126953 
	C370.905884,356.484131 367.676300,355.003845 367.083618,359.241180 
	C366.362366,364.397797 367.412170,365.783661 372.696472,365.961517 
	C374.025604,366.006256 375.368073,366.021423 376.675629,366.230255 
	C377.771423,366.405243 378.378906,367.194763 378.353882,368.359955 
	C378.327698,369.580017 377.583679,370.236816 376.474121,370.244476 
	C372.313690,370.273224 368.148682,370.305908 363.993530,370.137024 
	C362.071686,370.058899 361.730835,368.416870 361.725739,366.835724 
	C361.698303,358.338623 361.696350,349.841400 361.702789,341.344238 
	C361.703705,340.136780 361.897461,338.842834 363.291595,338.563965 
	C367.737000,337.674744 372.222870,337.734619 376.683472,338.457703 
	C377.834229,338.644257 378.226410,339.637268 378.004211,340.759247 
	C377.761688,341.983673 376.756744,342.201538 375.739075,342.280487 
	C373.262085,342.472656 370.781830,342.622864 367.986145,343.063019 
z"/>
<path fill="#000000" opacity="1.000000" stroke="none" 
	d="
M190.969727,353.967804 
	C189.996307,356.628937 187.931061,356.240540 186.220917,356.119812 
	C182.622452,355.865845 181.243820,357.141815 181.203598,360.922028 
	C181.160431,364.979584 182.783585,366.338531 186.530945,365.977142 
	C187.351013,365.898010 188.195099,365.960388 189.018585,366.047638 
	C190.539169,366.208679 192.200729,366.397278 192.042465,368.491211 
	C191.904343,370.318604 190.322693,370.194916 189.018204,370.321381 
	C188.688370,370.353363 188.354126,370.349792 188.022034,370.346863 
	C173.744492,370.220428 175.997314,371.947418 175.748062,358.798492 
	C175.644180,353.317719 175.814850,347.831085 175.675247,342.351868 
	C175.598862,339.353546 176.938950,338.073242 179.785477,338.070709 
	C182.940643,338.067871 186.098160,338.010193 189.249878,338.117188 
	C190.569885,338.161987 192.033020,338.444733 192.048096,340.264893 
	C192.063675,342.143768 190.609512,342.223602 189.262619,342.304169 
	C188.268967,342.363556 187.260132,342.420441 186.274582,342.318634 
	C182.743576,341.953888 181.205261,343.194794 181.204239,347.039246 
	C181.203217,350.876953 182.714600,352.040344 186.264160,351.794983 
	C187.972595,351.676880 190.043488,351.262878 190.969727,353.967804 
z"/>
<path fill="#000000" opacity="1.000000" stroke="none" 
	d="
M351.090790,349.976074 
	C349.149109,355.864563 347.386688,361.399841 345.480804,366.885284 
	C344.890869,368.583344 344.150787,370.408600 341.734528,370.198730 
	C339.487976,370.003571 339.391846,368.026123 338.902466,366.567932 
	C336.261017,358.697388 333.713013,350.795074 331.194916,342.883911 
	C330.706512,341.349457 329.904938,339.392944 332.010162,338.546631 
	C334.394348,337.588196 335.197998,339.578674 335.815491,341.348389 
	C337.885162,347.280029 339.904877,353.229095 342.185425,359.875946 
	C345.098785,354.559753 346.174530,349.307648 347.716431,344.225311 
	C348.195221,342.647095 348.740051,341.067871 349.462341,339.590668 
	C350.141449,338.201691 351.503876,337.904938 352.891785,338.342377 
	C354.649811,338.896484 354.424072,340.226379 353.950378,341.594757 
	C353.027496,344.260590 352.125458,346.933624 351.090790,349.976074 
z"/>
<path fill="#000000" opacity="1.000000" stroke="none" 
	d="
M301.780365,342.624695 
	C298.795715,349.363403 299.690125,350.931335 306.588654,351.792358 
	C308.114136,351.982788 309.845917,352.104706 309.792236,354.090820 
	C309.738434,356.080841 307.932556,356.403320 306.467377,356.172485 
	C300.604492,355.248810 300.013092,358.552277 300.120697,363.194183 
	C300.176392,365.596558 301.886108,369.886292 297.634186,369.960724 
	C292.734711,370.046570 295.003601,365.488586 294.881653,362.998871 
	C294.549164,356.211090 294.819885,349.396149 294.662964,342.596344 
	C294.589783,339.425629 295.865112,337.980438 299.003723,338.016663 
	C301.989624,338.051117 304.978729,337.928009 307.962097,338.017822 
	C309.574371,338.066376 311.686005,338.009888 311.797211,340.228149 
	C311.924438,342.766388 309.660645,342.216675 308.133087,342.324097 
	C306.150787,342.463531 304.156464,342.431885 301.780365,342.624695 
z"/>
<path fill="#000000" opacity="1.000000" stroke="none" 
	d="
M131.311096,366.707367 
	C131.247971,369.117432 130.566147,370.456024 128.311935,370.063416 
	C126.335365,369.719177 126.145683,367.986664 126.249718,366.582001 
	C126.678879,360.787506 125.596161,354.982544 126.524361,349.192963 
	C127.137550,345.368225 126.856461,342.064301 121.549149,342.435394 
	C120.269112,342.524902 118.650604,342.445984 118.529404,340.611450 
	C118.391792,338.528625 120.082024,338.208801 121.581757,338.173737 
	C126.396469,338.061218 131.215210,338.034149 136.030777,338.097351 
	C137.520493,338.116943 139.201065,338.391113 139.116989,340.491577 
	C139.042068,342.363953 137.471909,342.480255 136.182159,342.360962 
	C132.003067,341.974487 131.171646,344.151733 131.294571,347.799011 
	C131.501480,353.938995 131.334351,360.091614 131.311096,366.707367 
z"/>
<path fill="#000000" opacity="1.000000" stroke="none" 
	d="
M245.296204,365.790558 
	C245.271515,368.402435 245.063644,370.449738 242.131348,370.129974 
	C239.505295,369.843658 239.765350,367.701874 239.752594,365.933899 
	C239.696259,358.122223 239.704742,350.309937 239.725586,342.497955 
	C239.730881,340.510376 239.520752,338.159790 242.441757,338.117859 
	C245.315964,338.076630 245.298233,340.323303 245.300095,342.377472 
	C245.307068,350.023315 245.301834,357.669128 245.296204,365.790558 
z"/>
<path fill="#000000" opacity="1.000000" stroke="none" 
	d="
M318.659760,348.051941 
	C318.667664,345.563324 318.670563,343.564301 318.686676,341.565369 
	C318.699463,339.975830 318.923676,338.447357 320.924957,338.296417 
	C323.115936,338.131165 323.861908,339.590790 323.907257,341.448578 
	C324.012878,345.777588 324.039429,350.108917 324.059479,354.439484 
	C324.078003,358.437286 324.091187,362.436127 324.016968,366.432861 
	C323.981689,368.331360 323.735107,370.238678 321.092346,370.135681 
	C318.657227,370.040802 318.716095,368.201996 318.703796,366.532837 
	C318.659607,360.535980 318.670471,354.538696 318.659760,348.051941 
z"/>
</svg>